<svg width="400" height="300" viewBox="0 0 400 300" fill="none" xmlns="http://www.w3.org/2000/svg">
<rect width="400" height="300" transform="matrix(1 0 0 -1 0 300)" fill="#999999"/>
<path fill-rule="evenodd" clip-rule="evenodd" d="M189.333 136H210.667C212.434 136 213.867 137.433 213.867 139.2V160.533C213.867 162.301 212.434 163.733 210.667 163.733H189.333C187.566 163.733 186.133 162.301 186.133 160.533V139.2C186.133 137.433 187.566 136 189.333 136ZM189.333 138.133C188.744 138.133 188.267 138.611 188.267 139.2V151.709L191.854 148.121C192.039 147.937 192.29 147.836 192.55 147.84C192.81 147.845 193.057 147.955 193.235 148.145L200.797 156.246L206.788 150.255C207.163 149.88 207.771 149.88 208.145 150.255L211.733 153.842V139.2C211.733 138.611 211.256 138.133 210.667 138.133H189.333ZM188.267 160.533V154.424L192.51 150.181L200.066 158.276L203.074 161.6H189.333C188.744 161.6 188.267 161.122 188.267 160.533ZM210.667 161.6H205.664L202.098 157.66L207.467 152.291L211.733 156.558V160.533C211.733 161.122 211.256 161.6 210.667 161.6ZM198.185 145.6C198.185 144.598 198.998 143.785 200 143.785C201.002 143.785 201.815 144.598 201.815 145.6C201.815 146.602 201.002 147.415 200 147.415C198.998 147.415 198.185 146.602 198.185 145.6ZM200 141.865C197.937 141.865 196.265 143.537 196.265 145.6C196.265 147.663 197.937 149.335 200 149.335C202.063 149.335 203.735 147.663 203.735 145.6C203.735 143.537 202.063 141.865 200 141.865Z" fill="#222222"/>
</svg>
